# xmcd CD database file
#
# Track frame offsets:
#	150
#	24560
#	34077
#	47172
#
# Disc length: 859 seconds
#
# Revision: 0
# Processed by: cddbd v1.5.1PL0 Copyright (c) Steve Scherf et al.
# Submitted via: CDex 1.51
#
DISCID=2b035904
DTITLE=COIL - 追放と楽園
DYEAR=2000
DGENRE=JPop
TTITLE0=追放と楽園
TTITLE1=かぜっぴき
TTITLE2=Life is a Carnival
TTITLE3=♀〜venus〜
EXTD=YEAR: 2000
EXTT0=
EXTT1=
EXTT2=
EXTT3=
PLAYORDER=
